#!OML:ASF F:\VICON\USERDATA\Patient Classification 1\PLAYGROUND\JustinFriday\JustinFriday.ASF
:FULLY-SPECIFIED
:DEGREES
1746
root 23.6003 17.8478 50.3229 -162.831 40.9414 -163.248
lowerback 5.43843 2.03886 15.3535
upperback 3.86089 3.78396 3.53539
thorax 1.76648 2.36698 -4.93557
lowerneck -7.23897 6.0268 2.5801
upperneck 1.66673 7.83084 2.04177
head 1.76111 4.01481 0.498202
rclavicle -8.50798e-014 2.3059e-014
rhumerus 6.46688 -1.30838 -80.8351
rradius 44.7119
rwrist -16.8791
rhand -20.7824 -23.3657
rfingers 7.12502
rthumb 5.58446 -53.2722
lclavicle -8.50798e-014 2.3059e-014
lhumerus -31.7152 -10.0344 82.6452
lradius 68.583
lwrist 2.01997
lhand -14.3652 -8.70732
lfingers 7.12502
lthumb 11.7769 20.9416
rfemur -10.5189 -0.858327 30.5345
rtibia 28.468
rfoot -21.0675 -10.5667
rtoes -16.7287
lfemur -43.5071 13.4198 -12.9675
ltibia 44.9908
lfoot -8.10652 -2.24989
ltoes -3.4678
1747
root 23.641 17.8078 50.2708 -163.508 38.3504 -164.205
lowerback 5.63509 1.14157 15.3176
upperback 3.58636 2.66181 3.54722
thorax 1.13322 1.75514 -4.90955
lowerneck -7.29144 6.02005 2.25436
upperneck 1.44661 7.85378 2.20881
head 1.67781 4.02759 0.599571
rclavicle 2.33572e-014 -3.18055e-014
rhumerus 6.49763 -0.877952 -80.8084
rradius 45.6887
rwrist -16.9969
rhand -20.0844 -22.5522
rfingers 7.12502
rthumb 6.25835 -52.4397
lclavicle 2.33572e-014 -3.18055e-014
lhumerus -31.7803 -9.80605 82.6934
lradius 68.1492
lwrist 2.0447
lhand -14.1797 -9.4074
lfingers 7.12502
lthumb 11.9558 20.2312
rfemur -10.2007 -1.31516 30.7755
rtibia 28.0618
rfoot -20.487 -12.82
rtoes -16.6531
lfemur -44.3517 11.5915 -13.3261
ltibia 43.1741
lfoot -7.03427 -1.80412
ltoes -1.00657
1748
root 23.7162 17.8069 50.1746 -163.72 37.9723 -164.317
lowerback 5.61561 0.941274 15.2161
upperback 3.60887 2.38295 3.50933
thorax 1.10971 1.61434 -4.88639
lowerneck -7.10583 6.18148 1.92233
upperneck 1.02887 8.11733 2.36327
head 1.48782 4.15787 0.691539
rclavicle 4.35338e-014 1.47101e-014
rhumerus 6.55094 -0.302681 -80.8921
rradius 46.5576
rwrist -17.074
rhand -19.6517 -22.3162
rfingers 7.12502
rthumb 6.67603 -52.191
lclavicle 4.35338e-014 1.47101e-014
lhumerus -31.9087 -9.33781 82.7125
lradius 67.6623
lwrist 2.27526
lhand -13.9911 -10.1244
lfingers 7.12502
lthumb 12.1377 19.5035
rfemur -9.34732 -0.484928 30.8553
rtibia 27.6621
rfoot -19.9574 -13.2975
rtoes -13.1359
lfemur -44.2773 11.4461 -13.3437
ltibia 41.4532
lfoot -6.87528 -0.682769
ltoes -1.63105
1749
root 23.8289 17.8199 50.0284 -163.628 39.9125 -163.816
lowerback 5.34646 1.47388 14.893
upperback 3.97324 2.97407 3.35948
thorax 1.75888 1.95876 -4.85633
lowerneck -6.78386 6.48917 1.66204
upperneck 0.296723 8.5903 2.44845
head 1.17825 4.39089 0.74072
rclavicle -1.3418e-014 -4.37326e-015
rhumerus 6.58695 0.536068 -81.018
rradius 47.4983
rwrist -17.36
rhand -19.9603 -22.6404
rfingers 7.12502
rthumb 6.37816 -52.5244
lclavicle -1.3418e-014 -4.37326e-015
lhumerus -32.2502 -8.7405 82.7415
lradius 67.3538
lwrist 2.87212
lhand -14.6542 -11.0346
lfingers 7.12502
lthumb 11.4983 18.63
rfemur -8.06439 1.04735 30.5406
rtibia 27.4267
rfoot -20.2689 -12.7883
rtoes -11.7587
lfemur -43.2365 12.7844 -13.1152
ltibia 39.6369
lfoot -7.38116 1.08817
ltoes -1.56112
1750
root 23.8904 17.7892 49.9799 -162.9 37.4639 -163.676
lowerback 4.71352 0.713515 15.4015
upperback 3.59881 1.90906 3.5595
thorax 1.52059 1.40769 -4.89093
lowerneck -6.916 6.77184 1.02641
upperneck -0.111556 9.04049 3.06974
head 1.01085 4.63131 1.03763
rclavicle -3.67752e-014 7.15625e-014
rhumerus 6.53031 1.4174 -81.1141
rradius 48.5267
rwrist -17.8005
rhand -20.9548 -22.8896
rfingers 7.12502
rthumb 5.418 -52.8004
lclavicle -3.67752e-014 7.15625e-014
lhumerus -32.5311 -8.10625 82.6676
lradius 66.9791
lwrist 2.84432
lhand -14.3467 -11.5642
lfingers 7.12502
lthumb 11.7948 18.0837
rfemur -8.54507 0.954069 31.7379
rtibia 27.0543
rfoot -19.998 -14.6375
rtoes -10.703
lfemur -44.7096 11.4818 -12.6582
ltibia 37.8963
lfoot -6.76487 1.42601
ltoes 2.1739
1751
root 23.9595 17.7791 49.8895 -162.663 36.468 -163.653
lowerback 4.36046 0.391455 15.582
upperback 3.47121 1.4302 3.58419
thorax 1.49355 1.16488 -4.94714
lowerneck -7.58674 6.97476 0.412881
upperneck 0.315496 9.33452 3.68594
head 1.20298 4.80074 1.37883
rclavicle 4.06515e-014 -1.13307e-014
rhumerus 6.3932 2.0419 -81.1071
rradius 49.4353
rwrist -18.0168
rhand -21.8066 -22.0395
rfingers 7.12502
rthumb 4.59553 -51.9697
lclavicle 4.06515e-014 -1.13307e-014
lhumerus -32.6785 -7.52265 82.6062
lradius 66.4084
lwrist 2.4658
lhand -13.5371 -11.9976
lfingers 7.12502
lthumb 12.5754 17.6039
rfemur -8.3917 0.595054 32.1231
rtibia 26.8747
rfoot -20.1648 -15.1887
rtoes -10.4239
lfemur -45.0039 10.7598 -12.3342
ltibia 36.0426
lfoot -7.13328 2.23326
ltoes 2.7147
1752
root 24.0367 17.7589 49.7708 -162.868 36.4168 -163.683
lowerback 4.31744 0.285236 15.5458
upperback 3.53796 1.26727 3.49944
thorax 1.55851 1.09024 -5.01186
lowerneck -7.87652 7.19927 -0.101498
upperneck 0.394997 9.67388 4.08249
head 1.22918 4.98258 1.61195
rclavicle 1.2921e-014 -1.10127e-013
rhumerus 6.20705 2.66262 -81.0386
rradius 50.2349
rwrist -18.0694
rhand -20.7885 -22.1809
rfingers 7.12502
rthumb 5.57854 -52.0874
lclavicle 1.2921e-014 -1.10127e-013
lhumerus -32.9173 -6.7763 82.5176
lradius 65.8793
lwrist 2.0718
lhand -12.4724 -12.4888
lfingers 7.12502
lthumb 13.6017 17.0469
rfemur -7.58081 0.762142 32.069
rtibia 26.8202
rfoot -20.753 -15.2395
rtoes -9.29141
lfemur -44.5179 10.4935 -12.1242
ltibia 34.1184
lfoot -7.45371 3.70129
ltoes 2.22579
1753
root 24.1228 17.7156 49.6575 -163.335 36.4819 -163.922
lowerback 4.48006 0.128466 15.199
upperback 3.66314 1.05902 3.38271
thorax 1.55158 0.984115 -4.94452
lowerneck -8.00642 7.35235 -0.607214
upperneck 0.334127 9.92558 4.37197
head 1.18771 5.1151 1.79608
rclavicle -5.35228e-014 2.08724e-014
rhumerus 6.04729 3.66062 -81.1423
rradius 51.061
rwrist -18.4245
rhand -21.3909 -22.2669
rfingers 7.12502
rthumb 4.99689 -52.1879
lclavicle -5.35228e-014 2.08724e-014
lhumerus -33.1905 -5.86799 82.3662
lradius 65.3725
lwrist 1.89388
lhand -11.284 -12.8432
lfingers 7.12502
lthumb 14.7469 16.6122
rfemur -6.30451 0.745284 31.824
rtibia 26.1359
rfoot -20.7546 -15.0086
rtoes -8.1336
lfemur -44.2445 10.6127 -12.3274
ltibia 32.5764
lfoot -7.30046 5.14974
ltoes -3.21178
1754
root 24.199 17.6999 49.5343 -163.226 36.2034 -163.859
lowerback 4.1429 0.0613281 15.2754
upperback 3.6701 0.90081 3.34537
thorax 1.72166 0.917355 -5.01586
lowerneck -8.12506 7.37283 -0.98898
upperneck 0.186602 9.99682 4.59787
head 1.12957 5.15717 1.93235
rclavicle 5.32743e-014 -7.33515e-014
rhumerus 5.68714 4.84493 -80.9781
rradius 52.0486
rwrist -19.4205
rhand -23.2184 -22.9082
rfingers 7.12502
rthumb 3.23218 -52.8635
lclavicle 5.32743e-014 -7.33515e-014
lhumerus -33.32 -5.30322 82.4369
lradius 64.5739
lwrist 1.44779
lhand -10.82 -13.2806
lfingers 7.12502
lthumb 15.1938 16.1416
rfemur -5.68335 0.25808 31.8775
rtibia 25.6501
rfoot -20.4385 -14.7062
rtoes -7.5789
lfemur -43.9113 7.86047 -10.7331
ltibia 30.9903
lfoot -7.87971 9.25237
ltoes -6.19942
1755
root 24.2807 17.7593 49.4123 -163.402 36.7673 -163.654
lowerback 4.19125 0.0234943 15.1869
upperback 3.82979 0.838389 3.25363
thorax 1.85316 0.901478 -5.06163
lowerneck -7.80931 7.61813 -1.66691
upperneck -0.335981 10.4165 5.04473
head 0.837214 5.37247 2.15817
rclavicle -3.25758e-014 -1.61016e-014
rhumerus 5.2984 6.17569 -80.8906
rradius 52.8823
rwrist -19.4196
rhand -22.3363 -22.8462
rfingers 7.12502
rthumb 4.08407 -52.7868
lclavicle -3.25758e-014 -1.61016e-014
lhumerus -33.5483 -4.1239 82.2666
lradius 63.6758
lwrist 1.03413
lhand -10.8233 -13.3243
lfingers 7.12502
lthumb 15.1907 16.0981
rfemur -4.40975 0.639352 31.8234
rtibia 24.9116
rfoot -20.6536 -14.0667
rtoes -5.78787
lfemur -42.9373 6.41851 -9.27156
ltibia 30.0496
lfoot -10.1355 12.0447
ltoes -1.13428
1756
root 24.3574 17.7016 49.2798 -163.361 36.6759 -163.539
lowerback 3.98673 -0.00993564 15.2272
upperback 3.83405 0.751819 3.23513
thorax 1.95779 0.865608 -5.09821
lowerneck -7.52279 7.73056 -2.22064
upperneck -1.06506 10.6652 5.3961
head 0.499233 5.50306 2.3241
rclavicle -6.75619e-014 7.64327e-014
rhumerus 4.82759 6.86158 -80.7445
rradius 53.6874
rwrist -19.7468
rhand -21.7233 -22.8007
rfingers 7.12502
rthumb 4.67597 -52.7291
lclavicle -6.75619e-014 7.64327e-014
lhumerus -33.7654 -3.34671 82.3601
lradius 62.8446
lwrist 0.765376
lhand -10.6951 -12.4631
lfingers 7.12502
lthumb 15.3142 16.9499
rfemur -3.47157 0.572833 31.8203
rtibia 24.2746
rfoot -21.3668 -13.3516
rtoes -3.91565
lfemur -42.9421 5.45585 -8.47525
ltibia 29.215
lfoot -11.5139 13.8484
ltoes -2.04954
1757
root 24.4479 17.7078 49.1588 -163.549 36.9737 -163.426
lowerback 4.02694 -0.196907 15.0791
upperback 3.95744 0.491293 3.14776
thorax 2.01327 0.742544 -5.1045
lowerneck -7.28197 8.01341 -2.91445
upperneck -1.60992 11.1385 5.76223
head 0.205639 5.74551 2.53043
rclavicle 1.84746e-014 -6.08778e-015
rhumerus 4.5955 8.06 -81.0513
rradius 54.297
rwrist -19.9919
rhand -21.8728 -22.5659
rfingers 7.12502
rthumb 4.53164 -52.4974
lclavicle 1.84746e-014 -6.08778e-015
lhumerus -34.0952 -1.93045 82.1106
lradius 62.0293
lwrist 0.477293
lhand -9.95206 -11.5463
lfingers 7.12502
lthumb 16.0298 17.8106
rfemur -2.1071 0.897405 31.8302
rtibia 23.3897
rfoot -21.4004 -13.3414
rtoes -3.38362
lfemur -42.5825 6.16261 -8.40186
ltibia 29.0563
lfoot -13.4415 14.422
ltoes -2.39199
